<?xml version="1.0" encoding="utf-8"?>
<!-- Generator: Adobe Illustrator 23.0.3, SVG Export Plug-In . SVG Version: 6.00 Build 0)  -->
<svg version="1.1" id="Capa_1" xmlns="http://www.w3.org/2000/svg" xmlns:xlink="http://www.w3.org/1999/xlink" x="0px" y="0px"
	 viewBox="0 0 548.2 548.2" style="enable-background:new 0 0 548.2 548.2;" xml:space="preserve">
<style type="text/css">
	.st0{fill:url(#SVGID_1_);}
</style>
<linearGradient id="SVGID_1_" gradientUnits="userSpaceOnUse" x1="0" y1="274.088" x2="548.176" y2="274.088">
	<stop  offset="0" style="stop-color:#1245C6"/>
	<stop  offset="1" style="stop-color:#9909B7"/>
</linearGradient>
<path class="st0" d="M118.8,383.7h310.6c12.6,0,23.3-4.5,32.3-13.4c8.9-8.9,13.4-19.7,13.4-32.3V137c0-12.6-4.5-23.3-13.4-32.3
	c-8.9-8.9-19.7-13.4-32.3-13.4H118.8c-12.6,0-23.3,4.5-32.3,13.4c-8.9,8.9-13.4,19.7-13.4,32.3v201c0,12.6,4.5,23.3,13.4,32.3
	C95.5,379.2,106.2,383.7,118.8,383.7z M109.6,137c0-2.5,0.9-4.6,2.7-6.4c1.8-1.8,4-2.7,6.4-2.7h310.6c2.5,0,4.6,0.9,6.4,2.7
	c1.8,1.8,2.7,3.9,2.7,6.4v201c0,2.5-0.9,4.6-2.7,6.4c-1.8,1.8-3.9,2.7-6.4,2.7H118.8c-2.5,0-4.6-0.9-6.4-2.7
	c-1.8-1.8-2.7-3.9-2.7-6.4V137z M502.5,402H45.7H0v27.4c0,7.6,4.5,14.1,13.4,19.4c9,5.3,19.7,8,32.3,8h456.8c12.6,0,23.3-2.7,32.3-8
	s13.4-11.8,13.4-19.4V402H502.5z M296.9,429.4h-45.7c-3,0-4.6-1.5-4.6-4.6c0-3,1.5-4.6,4.6-4.6h45.7c3,0,4.6,1.5,4.6,4.6
	C301.5,427.9,300,429.4,296.9,429.4z"/>
</svg>
