<svg id="Layer_1" enable-background="new 0 0 509.532 509.532" height="1000" viewBox="0 0 509.532 509.532" width="100%" xmlns="http://www.w3.org/2000/svg"><g><g><path d="m443.759 233.888-66.941-16.848c-4.057-1.021-7.703-3.262-10.445-6.422l-19-21.886.444-28.242 30.621 1.673 14.59 16.806 60.709 15.28c10.946 2.755 17.587 13.862 14.831 24.808-2.756 10.948-13.865 17.586-24.809 14.831z" fill="#80391b"/></g><g><path d="m378.437 162.163-37.829-43.576c-7.399-8.523-20.308-9.436-28.832-2.036-8.523 7.4-9.435 20.308-2.035 28.832l37.632 43.349z" fill="#d13d2c"/></g><g><path d="m210.358 507.251c-12.289-5.698-17.632-20.279-11.934-32.567l47.782-103.052-4.624-85.269 23.579-27.107 25.716 23.274 4.621 92.705c.198 3.971-.572 7.931-2.245 11.538l-50.329 108.543c-5.697 12.287-20.276 17.633-32.566 11.935z" fill="#748488"/></g><g><path d="m339.629 487.138-10.3-117.983-31.414-93.419c-4.317-12.839 2.59-26.746 15.429-31.063 12.842-4.317 26.747 2.59 31.063 15.429l32.347 96.191c.619 1.841 1.018 3.749 1.187 5.684l10.554 120.896c1.178 13.494-8.806 25.387-22.3 26.565-13.556 1.183-25.393-8.865-26.566-22.3z" fill="#55696e"/></g><path d="m337.991 106.887-53.841-3.6c-16.674-1.115-31.095 11.499-32.21 28.173l-10.357 154.904 114.224 7.637 10.357-154.903c1.115-16.675-11.498-31.096-28.173-32.211z" fill="#e64937"/><path d="m324.15.102c-24.683-1.65-46.031 17.021-47.682 41.705-1.651 24.683 17.021 46.031 41.705 47.682 24.683 1.65 46.031-17.021 47.682-41.705s-17.021-46.032-41.705-47.682z" fill="#80391b"/><g><path d="m72.323 483.943c-6.725-3.101-14.691-.164-17.792 6.562-3.101 6.725-.163 14.691 6.562 17.792s14.691.163 17.792-6.562.163-14.691-6.562-17.792z" fill="#3c5a73"/><g><path d="m154.542 361.552-15.111-8.376 49.156-108.019 15.111 8.375z" fill="#a5c8cd"/></g><path d="m159.113 344.839-37.345-17.221c-8.472-3.907-18.506-.206-22.413 8.266l-57.456 124.596c-3.906 8.472-.206 18.506 8.266 22.413l37.345 17.222c8.472 3.906 18.506.206 22.413-8.266l57.458-124.597c3.904-8.471.204-18.506-8.268-22.413z" fill="#1c9585"/></g><g><path d="m243.175 137.465-28.437 15.193c-4.151 2.218-7.41 5.8-9.226 10.143l-32.052 76.66c-4.354 10.414.559 22.386 10.973 26.74 10.348 4.327 22.358-.492 26.74-10.973l29.244-69.946 19.974-10.671 7.088-26.499z" fill="#80391b"/></g><g><path d="m317.387 120.987c-5.319-9.956-17.7-13.715-27.657-8.396l-46.555 24.873 17.216 37.145 48.6-25.965c9.957-5.318 13.716-17.701 8.396-27.657z" fill="#d13d2c"/></g></g></svg>
